<svg width="360" height="422" viewBox="0 0 360 422" fill="none" xmlns="http://www.w3.org/2000/svg">
<g clip-path="url(#clip0_1_49)">
<g filter="url(#filter0_d_1_49)">
<path d="M185.095 94.5055C196.531 51.8282 240.398 26.5016 283.075 37.937V37.937C325.752 49.3723 351.079 93.2393 339.644 135.917L280.115 358.079C270.109 395.422 231.726 417.583 194.383 407.577L175.064 402.401C137.722 392.395 115.561 354.011 125.567 316.668L185.095 94.5055Z" fill="url(#paint0_linear_1_49)"/>
<rect x="191.24" y="179.758" width="105" height="30" rx="10" transform="rotate(15 191.24 179.758)" fill="#0E81C0"/>
<rect x="179.593" y="223.225" width="105" height="30" rx="10" transform="rotate(15 179.593 223.225)" fill="#F86F1F"/>
<rect x="167.946" y="266.692" width="105" height="30" rx="10" transform="rotate(15 167.946 266.692)" fill="#04955C"/>
<rect x="156.299" y="310.158" width="105" height="30" rx="10" transform="rotate(15 156.299 310.158)" fill="#D6C66E"/>
<path d="M327.561 121.124C319.062 152.839 284.126 171.251 249.334 161.929C214.542 152.607 193.492 119.193 201.99 87.4771C210.488 55.7614 245.425 37.3492 280.217 46.6716C315.009 55.9941 336.059 89.4079 327.561 121.124Z" fill="#EA0614" stroke="#B8000B" stroke-width="3"/>
<path d="M227.683 95.9495L226.052 102.035C226.011 102.189 226.072 102.309 226.235 102.394C226.886 102.672 227.51 102.891 228.109 103.052C229.713 103.481 230.959 103.505 231.848 103.122C232.762 102.725 233.382 101.918 233.708 100.701C233.998 99.6191 233.776 98.7105 233.041 97.9753C232.331 97.226 230.981 96.5847 228.991 96.0515L227.977 95.7798C227.822 95.7384 227.724 95.7949 227.683 95.9495ZM229.95 87.488L228.622 92.4432C228.576 92.617 228.63 92.7247 228.784 92.7661L229.625 92.9913C231.421 93.4727 232.78 93.578 233.702 93.3073C234.648 93.0224 235.25 92.397 235.509 91.4311C235.757 90.5038 235.613 89.73 235.075 89.1096C234.537 88.4893 233.525 87.9799 232.037 87.5813C231.361 87.4001 230.771 87.2835 230.267 87.2313C230.102 87.2286 229.997 87.3141 229.95 87.488ZM222.775 104.76C222.322 104.597 221.987 104.3 221.772 103.869C221.561 103.42 221.52 102.953 221.65 102.47L226.355 84.9096C226.484 84.4267 226.75 84.0527 227.152 83.7878C227.56 83.5036 228.01 83.4068 228.504 83.4976C229.975 83.7261 231.376 84.019 232.709 84.3761C238.119 85.8255 240.35 88.3179 239.402 91.8531C239.087 93.0316 238.416 93.9493 237.391 94.6064C236.366 95.2635 235.173 95.5443 233.811 95.4486C233.792 95.4434 233.78 95.4505 233.775 95.4698C233.764 95.5084 233.769 95.5303 233.788 95.5355C235.31 96.1918 236.388 97.1123 237.023 98.297C237.683 99.4676 237.829 100.739 237.461 102.11C236.892 104.235 235.77 105.643 234.094 106.333C232.418 107.022 230.112 106.974 227.176 106.187C225.708 105.794 224.241 105.318 222.775 104.76ZM256.486 105.655C255.089 110.871 251.782 112.78 246.566 111.383C241.35 109.985 239.441 106.678 240.838 101.462L244.045 89.4944C244.164 89.0501 244.432 88.7077 244.848 88.4673C245.265 88.2269 245.695 88.1662 246.14 88.2853L246.951 88.5027C247.395 88.6218 247.738 88.8895 247.978 89.3059C248.218 89.7223 248.279 90.1527 248.16 90.597L244.891 102.797C244.487 104.303 244.494 105.475 244.912 106.312C245.354 107.134 246.223 107.719 247.517 108.066C248.811 108.413 249.846 108.338 250.621 107.841C251.42 107.331 252.022 106.322 252.425 104.815L255.694 92.6158C255.813 92.1715 256.081 91.8291 256.497 91.5887C256.914 91.3483 257.344 91.2876 257.789 91.4066L258.484 91.593C258.928 91.7121 259.271 91.9798 259.511 92.3962C259.752 92.8126 259.812 93.243 259.693 93.6873L256.486 105.655ZM260.607 109.834L272.76 99.021L272.768 98.992L272.805 98.9708C272.81 98.9515 272.803 98.9392 272.783 98.9341L264.901 96.8221C264.457 96.703 264.112 96.445 263.866 96.0479C263.626 95.6315 263.565 95.2011 263.684 94.7568C263.804 94.3124 264.071 93.9701 264.488 93.7296C264.904 93.4892 265.334 93.4285 265.779 93.5476L276.79 96.4981C277.235 96.6172 277.577 96.8849 277.817 97.3013C278.058 97.7178 278.119 98.1481 277.999 98.5925C277.71 99.6743 277.141 100.599 276.294 101.365L264.141 112.179L264.133 112.208L264.096 112.229C264.091 112.248 264.098 112.26 264.118 112.265L272 114.377C272.444 114.496 272.786 114.764 273.027 115.181C273.272 115.578 273.336 115.998 273.217 116.443C273.097 116.887 272.83 117.229 272.413 117.47C271.997 117.71 271.567 117.771 271.122 117.652L260.111 114.701C259.666 114.582 259.324 114.315 259.084 113.898C258.843 113.482 258.782 113.051 258.901 112.607C259.191 111.525 259.76 110.601 260.607 109.834ZM278.917 114.74L291.069 103.927L291.077 103.898L291.114 103.877C291.119 103.857 291.112 103.845 291.093 103.84L283.211 101.728C282.766 101.609 282.421 101.351 282.176 100.954C281.935 100.537 281.875 100.107 281.994 99.6627C282.113 99.2184 282.38 98.876 282.797 98.6356C283.213 98.3952 283.644 98.3345 284.088 98.4535L295.1 101.404C295.544 101.523 295.886 101.791 296.127 102.207C296.367 102.624 296.428 103.054 296.309 103.498C296.019 104.58 295.45 105.505 294.603 106.271L282.45 117.084L282.442 117.113L282.406 117.135C282.4 117.154 282.408 117.166 282.427 117.171L290.309 119.283C290.753 119.402 291.095 119.67 291.336 120.087C291.581 120.484 291.645 120.904 291.526 121.349C291.407 121.793 291.139 122.135 290.722 122.376C290.306 122.616 289.876 122.677 289.431 122.558L278.42 119.607C277.976 119.488 277.633 119.221 277.393 118.804C277.152 118.388 277.092 117.957 277.211 117.513C277.501 116.431 278.069 115.507 278.917 114.74ZM300.118 118.588C299.654 118.464 299.3 118.204 299.054 117.806C298.814 117.39 298.746 116.947 298.851 116.479L301.491 104.887C301.591 104.437 301.839 104.09 302.236 103.844C302.633 103.599 303.054 103.535 303.498 103.655L305.063 104.074C305.507 104.193 305.84 104.458 306.061 104.869C306.282 105.28 306.324 105.706 306.185 106.145L302.676 117.504C302.532 117.962 302.252 118.311 301.836 118.552C301.425 118.773 300.987 118.821 300.524 118.697L300.118 118.588ZM300.192 121.093C300.637 121.212 300.969 121.477 301.19 121.888C301.431 122.305 301.491 122.735 301.372 123.18L301.171 123.933C301.051 124.377 300.784 124.72 300.367 124.96C299.97 125.206 299.55 125.269 299.105 125.15L298.12 124.886C297.676 124.767 297.333 124.499 297.093 124.083C296.872 123.672 296.821 123.244 296.94 122.799L297.142 122.046C297.261 121.602 297.519 121.257 297.916 121.011C298.332 120.771 298.763 120.71 299.207 120.829L300.192 121.093Z" fill="white"/>
<path d="M226.235 102.394L225.773 103.281L225.807 103.299L225.843 103.314L226.235 102.394ZM231.848 103.122L232.244 104.041L232.247 104.039L231.848 103.122ZM233.041 97.9753L232.315 98.6632L232.324 98.6728L232.334 98.6822L233.041 97.9753ZM233.702 93.3073L233.984 94.2667L233.99 94.2648L233.702 93.3073ZM235.075 89.1096L235.831 88.4546L235.831 88.4546L235.075 89.1096ZM230.267 87.2313L230.37 86.2366L230.327 86.2322L230.284 86.2315L230.267 87.2313ZM222.775 104.76L223.131 103.825L223.122 103.822L223.113 103.818L222.775 104.76ZM221.772 103.869L220.866 104.294L220.872 104.306L220.878 104.318L221.772 103.869ZM227.152 83.7878L227.702 84.623L227.714 84.6156L227.725 84.608L227.152 83.7878ZM228.504 83.4976L228.323 84.4811L228.336 84.4836L228.35 84.4858L228.504 83.4976ZM237.391 94.6064L236.851 93.7646L236.851 93.7646L237.391 94.6064ZM233.811 95.4486L233.552 96.4145L233.645 96.4394L233.741 96.4461L233.811 95.4486ZM233.788 95.5355L234.184 94.6172L234.117 94.5884L234.047 94.5696L233.788 95.5355ZM237.023 98.297L236.142 98.7694L236.147 98.7787L236.152 98.7879L237.023 98.297ZM234.094 106.333L233.713 105.408L233.713 105.408L234.094 106.333ZM226.717 95.6907L225.086 101.776L227.018 102.294L228.649 96.2083L226.717 95.6907ZM225.086 101.776C225.014 102.044 225.013 102.374 225.176 102.694C225.33 102.997 225.574 103.177 225.773 103.281L226.698 101.508C226.734 101.526 226.865 101.604 226.958 101.787C227.06 101.987 227.049 102.18 227.018 102.294L225.086 101.776ZM225.843 103.314C226.53 103.608 227.2 103.843 227.85 104.018L228.368 102.086C227.821 101.939 227.241 101.737 226.628 101.475L225.843 103.314ZM227.85 104.018C229.531 104.468 231.045 104.556 232.244 104.041L231.453 102.203C230.873 102.453 229.894 102.495 228.368 102.086L227.85 104.018ZM232.247 104.039C233.512 103.489 234.292 102.386 234.674 100.96L232.742 100.442C232.472 101.45 232.012 101.961 231.45 102.205L232.247 104.039ZM234.674 100.96C235.048 99.5655 234.759 98.2793 233.748 97.2684L232.334 98.6822C232.793 99.1418 232.949 99.6726 232.742 100.442L234.674 100.96ZM233.767 97.2874C232.855 96.3257 231.272 95.6275 229.25 95.0856L228.732 97.0175C230.689 97.5419 231.806 98.1262 232.315 98.6632L233.767 97.2874ZM229.25 95.0856L228.236 94.8138L227.718 96.7457L228.732 97.0175L229.25 95.0856ZM228.236 94.8138C228.009 94.7532 227.647 94.7175 227.287 94.9251C226.928 95.1328 226.777 95.4645 226.717 95.6907L228.649 96.2083C228.63 96.2799 228.549 96.5061 228.287 96.6572C228.026 96.8083 227.79 96.7649 227.718 96.7457L228.236 94.8138ZM228.984 87.2291L227.656 92.1844L229.588 92.702L230.916 87.7468L228.984 87.2291ZM227.656 92.1844C227.6 92.394 227.554 92.7434 227.734 93.1026C227.928 93.4886 228.268 93.663 228.525 93.732L229.043 91.8002C229.146 91.8278 229.382 91.9277 229.522 92.206C229.648 92.4575 229.598 92.6662 229.588 92.702L227.656 92.1844ZM228.525 93.732L229.366 93.9572L229.883 92.0253L229.043 91.8002L228.525 93.732ZM229.366 93.9572C231.201 94.4491 232.786 94.6185 233.984 94.2667L233.42 92.3478C232.774 92.5375 231.641 92.4963 229.883 92.0253L229.366 93.9572ZM233.99 94.2648C235.273 93.8786 236.128 92.9853 236.475 91.6899L234.543 91.1722C234.372 91.8087 234.023 92.1662 233.413 92.3497L233.99 94.2648ZM236.475 91.6899C236.792 90.5047 236.625 89.3711 235.831 88.4546L234.319 89.7647C234.6 90.0888 234.722 90.5029 234.543 91.1722L236.475 91.6899ZM235.831 88.4546C235.09 87.6003 233.832 87.027 232.296 86.6154L231.778 88.5472C233.217 88.9327 233.984 89.3783 234.319 89.7647L235.831 88.4546ZM232.296 86.6154C231.586 86.4253 230.942 86.2958 230.37 86.2366L230.164 88.226C230.6 88.2711 231.135 88.375 231.778 88.5472L232.296 86.6154ZM230.284 86.2315C230.019 86.227 229.707 86.2959 229.435 86.516C229.172 86.7288 229.045 87.0036 228.984 87.2291L230.916 87.7468C230.902 87.7985 230.851 87.9436 230.693 88.0709C230.527 88.2053 230.351 88.2329 230.25 88.2312L230.284 86.2315ZM223.113 103.818C222.902 103.742 222.766 103.622 222.665 103.421L220.878 104.318C221.209 104.978 221.742 105.451 222.437 105.701L223.113 103.818ZM222.677 103.445C222.567 103.21 222.547 102.986 222.615 102.729L220.684 102.211C220.494 102.92 220.555 103.629 220.866 104.294L222.677 103.445ZM222.615 102.729L227.321 85.1684L225.389 84.6508L220.684 102.211L222.615 102.729ZM227.321 85.1684C227.389 84.9122 227.513 84.7477 227.702 84.623L226.602 82.9526C225.987 83.3578 225.579 83.9411 225.389 84.6508L227.321 85.1684ZM227.725 84.608C227.91 84.4783 228.089 84.4382 228.323 84.4811L228.684 82.5141C227.931 82.3755 227.209 82.5289 226.58 82.9676L227.725 84.608ZM228.35 84.4858C229.788 84.7092 231.155 84.9949 232.451 85.3421L232.968 83.4102C231.598 83.043 230.161 82.7431 228.657 82.5095L228.35 84.4858ZM232.451 85.3421C235.081 86.0468 236.769 86.9658 237.694 87.9994C238.561 88.9672 238.832 90.1163 238.436 91.5943L240.368 92.112C240.92 90.0547 240.549 88.19 239.185 86.6655C237.879 85.2067 235.747 84.1548 232.968 83.4102L232.451 85.3421ZM238.436 91.5943C238.185 92.5326 237.666 93.2422 236.851 93.7646L237.931 95.4483C239.166 94.6564 239.988 93.5305 240.368 92.112L238.436 91.5943ZM236.851 93.7646C236.029 94.2916 235.056 94.5335 233.881 94.451L233.741 96.4461C235.29 96.555 236.703 96.2355 237.931 95.4483L236.851 93.7646ZM234.07 94.4827C233.912 94.4402 233.604 94.4011 233.288 94.584C232.971 94.7669 232.851 95.0524 232.809 95.211L234.74 95.7286C234.703 95.8678 234.592 96.1402 234.288 96.316C233.983 96.4919 233.692 96.4518 233.552 96.4145L234.07 94.4827ZM232.809 95.211C232.79 95.2796 232.741 95.4758 232.79 95.7157C232.818 95.8511 232.883 96.0266 233.025 96.1886C233.172 96.3563 233.355 96.4549 233.529 96.5014L234.047 94.5696C234.211 94.6136 234.386 94.7074 234.527 94.8684C234.664 95.0236 234.724 95.1902 234.75 95.3147C234.794 95.5326 234.748 95.6986 234.74 95.7286L232.809 95.211ZM233.392 96.4538C234.756 97.042 235.637 97.8269 236.142 98.7694L237.905 97.8246C237.14 96.3977 235.864 95.3416 234.184 94.6172L233.392 96.4538ZM236.152 98.7879C236.675 99.7166 236.8 100.717 236.496 101.851L238.427 102.369C238.858 100.761 238.69 99.2186 237.895 97.8062L236.152 98.7879ZM236.496 101.851C235.988 103.747 235.038 104.862 233.713 105.408L234.475 107.257C236.501 106.423 237.797 104.723 238.427 102.369L236.496 101.851ZM233.713 105.408C232.337 105.974 230.29 105.986 227.435 105.221L226.917 107.153C229.935 107.962 232.499 108.071 234.475 107.257L233.713 105.408ZM227.435 105.221C226 104.837 224.566 104.372 223.131 103.825L222.419 105.694C223.916 106.264 225.415 106.751 226.917 107.153L227.435 105.221ZM244.848 88.4673L244.348 87.6013L244.348 87.6013L244.848 88.4673ZM247.978 89.3059L248.844 88.8059L248.844 88.8059L247.978 89.3059ZM244.912 106.312L244.017 106.759L244.024 106.772L244.031 106.785L244.912 106.312ZM250.621 107.841L250.082 106.999L250.081 106.999L250.621 107.841ZM255.521 105.396C254.862 107.855 253.801 109.358 252.458 110.133C251.115 110.908 249.284 111.076 246.825 110.417L246.307 112.349C249.064 113.087 251.494 112.999 253.458 111.865C255.422 110.731 256.714 108.671 257.452 105.914L255.521 105.396ZM246.825 110.417C244.366 109.758 242.863 108.697 242.088 107.354C241.313 106.012 241.145 104.18 241.804 101.721L239.873 101.203C239.134 103.96 239.222 106.39 240.356 108.354C241.49 110.318 243.55 111.61 246.307 112.349L246.825 110.417ZM241.804 101.721L245.011 89.7533L243.079 89.2356L239.873 101.203L241.804 101.721ZM245.011 89.7533C245.058 89.5778 245.15 89.4479 245.348 89.3334L244.348 87.6013C243.714 87.9676 243.27 88.5225 243.079 89.2356L245.011 89.7533ZM245.348 89.3334C245.547 89.2189 245.705 89.2042 245.881 89.2512L246.398 87.3194C245.685 87.1283 244.983 87.235 244.348 87.6013L245.348 89.3334ZM245.881 89.2512L246.692 89.4686L247.21 87.5368L246.398 87.3194L245.881 89.2512ZM246.692 89.4686C246.868 89.5156 246.998 89.6076 247.112 89.8059L248.844 88.8059C248.478 88.1714 247.923 87.7279 247.21 87.5368L246.692 89.4686ZM247.112 89.8059C247.227 90.0042 247.241 90.1627 247.194 90.3382L249.126 90.8558C249.317 90.1427 249.21 89.4404 248.844 88.8059L247.112 89.8059ZM247.194 90.3382L243.925 102.538L245.857 103.055L249.126 90.8558L247.194 90.3382ZM243.925 102.538C243.498 104.134 243.438 105.598 244.017 106.759L245.807 105.865C245.551 105.353 245.477 104.473 245.857 103.055L243.925 102.538ZM244.031 106.785C244.652 107.94 245.815 108.645 247.258 109.032L247.776 107.1C246.63 106.793 246.056 106.328 245.793 105.838L244.031 106.785ZM247.258 109.032C248.698 109.418 250.057 109.39 251.16 108.684L250.081 106.999C249.634 107.286 248.924 107.408 247.776 107.1L247.258 109.032ZM251.159 108.684C252.269 107.976 252.962 106.676 253.391 105.074L251.459 104.557C251.081 105.968 250.572 106.686 250.082 106.999L251.159 108.684ZM253.391 105.074L256.66 92.8746L254.728 92.357L251.459 104.557L253.391 105.074ZM256.66 92.8746C256.707 92.6991 256.799 92.5692 256.997 92.4547L255.997 90.7227C255.363 91.089 254.919 91.6438 254.728 92.357L256.66 92.8746ZM256.997 92.4547C257.196 92.3402 257.354 92.3255 257.53 92.3726L258.047 90.4407C257.334 90.2496 256.632 90.3563 255.997 90.7227L256.997 92.4547ZM257.53 92.3726L258.225 92.5589L258.743 90.6271L258.047 90.4407L257.53 92.3726ZM258.225 92.5589C258.401 92.6059 258.531 92.6979 258.645 92.8962L260.377 91.8962C260.011 91.2617 259.456 90.8182 258.743 90.6271L258.225 92.5589ZM258.645 92.8962C258.76 93.0945 258.774 93.253 258.727 93.4285L260.659 93.9461C260.85 93.233 260.744 92.5307 260.377 91.8962L258.645 92.8962ZM258.727 93.4285L255.521 105.396L257.452 105.914L260.659 93.9461L258.727 93.4285ZM260.607 109.834L259.943 109.087L259.936 109.093L260.607 109.834ZM272.76 99.021L273.425 99.7681L273.648 99.569L273.726 99.2798L272.76 99.021ZM272.768 98.992L272.268 98.126L271.909 98.3331L271.802 98.7332L272.768 98.992ZM272.805 98.9708L273.305 99.8368L273.663 99.6297L273.77 99.2296L272.805 98.9708ZM263.866 96.0479L263 96.5479L263.008 96.561L263.016 96.5739L263.866 96.0479ZM264.488 93.7296L263.988 92.8636L263.988 92.8636L264.488 93.7296ZM276.294 101.365L276.958 102.113L276.965 102.107L276.294 101.365ZM264.141 112.179L263.476 111.431L263.252 111.63L263.175 111.92L264.141 112.179ZM264.133 112.208L264.633 113.074L264.992 112.866L265.099 112.466L264.133 112.208ZM264.096 112.229L263.596 111.363L263.238 111.57L263.13 111.97L264.096 112.229ZM273.027 115.181L272.161 115.681L272.168 115.694L272.176 115.707L273.027 115.181ZM272.413 117.47L271.913 116.604L271.913 116.604L272.413 117.47ZM259.084 113.898L258.217 114.398L258.217 114.398L259.084 113.898ZM261.272 110.581L273.425 99.7681L272.095 98.2739L259.943 109.087L261.272 110.581ZM273.726 99.2798L273.734 99.2508L271.802 98.7332L271.794 98.7622L273.726 99.2798ZM273.268 99.858L273.305 99.8368L272.305 98.1048L272.268 98.126L273.268 99.858ZM273.77 99.2296C273.813 99.0711 273.852 98.7639 273.669 98.4471C273.486 98.1303 273.201 98.0106 273.042 97.9681L272.525 99.9C272.385 99.8627 272.113 99.7517 271.937 99.4471C271.761 99.1426 271.801 98.8512 271.839 98.712L273.77 99.2296ZM273.042 97.9681L265.16 95.8562L264.643 97.788L272.525 99.9L273.042 97.9681ZM265.16 95.8562C264.966 95.8041 264.831 95.7059 264.717 95.5219L263.016 96.5739C263.393 97.184 263.948 97.6019 264.643 97.788L265.16 95.8562ZM264.733 95.5479C264.618 95.3495 264.603 95.1911 264.65 95.0156L262.719 94.4979C262.527 95.2111 262.634 95.9134 263 96.5479L264.733 95.5479ZM264.65 95.0156C264.697 94.8401 264.789 94.7102 264.988 94.5957L263.988 92.8636C263.353 93.23 262.91 93.7848 262.719 94.4979L264.65 95.0156ZM264.988 94.5957C265.186 94.4812 265.344 94.4665 265.52 94.5135L266.038 92.5817C265.324 92.3906 264.622 92.4973 263.988 92.8636L264.988 94.5957ZM265.52 94.5135L276.532 97.4641L277.049 95.5322L266.038 92.5817L265.52 94.5135ZM276.532 97.4641C276.707 97.5111 276.837 97.603 276.951 97.8013L278.683 96.8013C278.317 96.1668 277.762 95.7233 277.049 95.5322L276.532 97.4641ZM276.951 97.8013C277.066 97.9997 277.081 98.1581 277.034 98.3336L278.965 98.8513C279.156 98.1381 279.05 97.4359 278.683 96.8013L276.951 97.8013ZM277.034 98.3336C276.795 99.2256 276.33 99.9835 275.623 100.624L276.965 102.107C277.952 101.214 278.625 100.123 278.965 98.8513L277.034 98.3336ZM275.629 100.618L263.476 111.431L264.806 112.926L276.958 102.113L275.629 100.618ZM263.175 111.92L263.167 111.949L265.099 112.466L265.107 112.437L263.175 111.92ZM263.633 111.341L263.596 111.363L264.596 113.095L264.633 113.074L263.633 111.341ZM263.13 111.97C263.088 112.128 263.049 112.436 263.232 112.752C263.415 113.069 263.7 113.189 263.859 113.231L264.376 111.3C264.516 111.337 264.788 111.448 264.964 111.752C265.14 112.057 265.1 112.348 265.062 112.488L263.13 111.97ZM263.859 113.231L271.741 115.343L272.258 113.412L264.376 111.3L263.859 113.231ZM271.741 115.343C271.916 115.39 272.046 115.482 272.161 115.681L273.893 114.681C273.526 114.046 272.972 113.603 272.258 113.412L271.741 115.343ZM272.176 115.707C272.279 115.873 272.297 116.01 272.251 116.184L274.182 116.702C274.374 115.986 274.265 115.282 273.877 114.655L272.176 115.707ZM272.251 116.184C272.204 116.359 272.112 116.489 271.913 116.604L272.913 118.336C273.548 117.97 273.991 117.415 274.182 116.702L272.251 116.184ZM271.913 116.604C271.715 116.718 271.557 116.733 271.381 116.686L270.863 118.618C271.577 118.809 272.279 118.702 272.913 118.336L271.913 116.604ZM271.381 116.686L260.369 113.735L259.852 115.667L270.863 118.618L271.381 116.686ZM260.369 113.735C260.194 113.688 260.064 113.596 259.95 113.398L258.217 114.398C258.584 115.033 259.139 115.476 259.852 115.667L260.369 113.735ZM259.95 113.398C259.835 113.2 259.82 113.041 259.867 112.866L257.936 112.348C257.744 113.061 257.851 113.764 258.217 114.398L259.95 113.398ZM259.867 112.866C260.106 111.974 260.571 111.216 261.278 110.576L259.936 109.093C258.949 109.986 258.276 111.077 257.936 112.348L259.867 112.866ZM278.917 114.74L278.252 113.993L278.246 113.999L278.917 114.74ZM291.069 103.927L291.734 104.674L291.958 104.475L292.035 104.186L291.069 103.927ZM291.077 103.898L290.577 103.032L290.218 103.239L290.111 103.639L291.077 103.898ZM291.114 103.877L291.614 104.743L291.972 104.536L292.08 104.136L291.114 103.877ZM282.176 100.954L281.31 101.454L281.317 101.467L281.325 101.48L282.176 100.954ZM282.797 98.6356L282.297 97.7696L282.297 97.7696L282.797 98.6356ZM294.603 106.271L295.268 107.018L295.274 107.013L294.603 106.271ZM282.45 117.084L281.785 116.337L281.562 116.536L281.484 116.826L282.45 117.084ZM282.442 117.113L282.942 117.979L283.301 117.772L283.408 117.372L282.442 117.113ZM282.406 117.135L281.906 116.269L281.547 116.476L281.44 116.876L282.406 117.135ZM291.336 120.087L290.47 120.587L290.477 120.6L290.485 120.613L291.336 120.087ZM290.722 122.376L290.222 121.51L290.222 121.51L290.722 122.376ZM277.393 118.804L276.527 119.304L276.527 119.304L277.393 118.804ZM279.581 115.487L291.734 104.674L290.405 103.18L278.252 113.993L279.581 115.487ZM292.035 104.186L292.043 104.157L290.111 103.639L290.103 103.668L292.035 104.186ZM291.577 104.764L291.614 104.743L290.614 103.011L290.577 103.032L291.577 104.764ZM292.08 104.136C292.122 103.977 292.161 103.67 291.978 103.353C291.795 103.036 291.51 102.917 291.351 102.874L290.834 104.806C290.694 104.769 290.422 104.658 290.246 104.353C290.07 104.048 290.111 103.757 290.148 103.618L292.08 104.136ZM291.351 102.874L283.469 100.762L282.952 102.694L290.834 104.806L291.351 102.874ZM283.469 100.762C283.275 100.71 283.14 100.612 283.026 100.428L281.325 101.48C281.703 102.09 282.257 102.508 282.952 102.694L283.469 100.762ZM283.042 100.454C282.927 100.255 282.913 100.097 282.96 99.9215L281.028 99.4039C280.837 100.117 280.943 100.819 281.31 101.454L283.042 100.454ZM282.96 99.9215C283.007 99.746 283.099 99.6161 283.297 99.5016L282.297 97.7696C281.662 98.1359 281.219 98.6907 281.028 99.4039L282.96 99.9215ZM283.297 99.5016C283.495 99.3871 283.654 99.3724 283.829 99.4195L284.347 97.4876C283.634 97.2965 282.931 97.4032 282.297 97.7696L283.297 99.5016ZM283.829 99.4195L294.841 102.37L295.358 100.438L284.347 97.4876L283.829 99.4195ZM294.841 102.37C295.016 102.417 295.146 102.509 295.261 102.707L296.993 101.707C296.626 101.073 296.071 100.629 295.358 100.438L294.841 102.37ZM295.261 102.707C295.375 102.906 295.39 103.064 295.343 103.24L297.275 103.757C297.466 103.044 297.359 102.342 296.993 101.707L295.261 102.707ZM295.343 103.24C295.104 104.132 294.64 104.889 293.932 105.53L295.274 107.013C296.261 106.12 296.934 105.029 297.275 103.757L295.343 103.24ZM293.938 105.524L281.785 116.337L283.115 117.832L295.268 107.018L293.938 105.524ZM281.484 116.826L281.476 116.855L283.408 117.372L283.416 117.343L281.484 116.826ZM281.942 116.247L281.906 116.269L282.906 118.001L282.942 117.979L281.942 116.247ZM281.44 116.876C281.397 117.034 281.358 117.342 281.541 117.658C281.724 117.975 282.009 118.095 282.168 118.137L282.686 116.205C282.825 116.243 283.097 116.354 283.273 116.658C283.449 116.963 283.409 117.254 283.372 117.393L281.44 116.876ZM282.168 118.137L290.05 120.249L290.568 118.317L282.686 116.205L282.168 118.137ZM290.05 120.249C290.225 120.296 290.355 120.388 290.47 120.587L292.202 119.587C291.836 118.952 291.281 118.509 290.568 118.317L290.05 120.249ZM290.485 120.613C290.588 120.779 290.606 120.916 290.56 121.09L292.492 121.608C292.683 120.892 292.575 120.188 292.186 119.561L290.485 120.613ZM290.56 121.09C290.513 121.265 290.421 121.395 290.222 121.51L291.222 123.242C291.857 122.876 292.301 122.321 292.492 121.608L290.56 121.09ZM290.222 121.51C290.024 121.624 289.866 121.639 289.69 121.592L289.173 123.524C289.886 123.715 290.588 123.608 291.223 123.242L290.222 121.51ZM289.69 121.592L278.679 118.641L278.161 120.573L289.173 123.524L289.69 121.592ZM278.679 118.641C278.503 118.594 278.373 118.502 278.259 118.304L276.527 119.304C276.893 119.939 277.448 120.382 278.161 120.573L278.679 118.641ZM278.259 118.304C278.144 118.106 278.13 117.947 278.177 117.772L276.245 117.254C276.054 117.967 276.16 118.67 276.527 119.304L278.259 118.304ZM278.177 117.772C278.416 116.88 278.88 116.122 279.588 115.481L278.246 113.999C277.259 114.892 276.586 115.982 276.245 117.254L278.177 117.772ZM299.054 117.806L298.188 118.306L298.196 118.32L298.204 118.332L299.054 117.806ZM298.851 116.479L297.876 116.257L297.875 116.26L298.851 116.479ZM301.491 104.887L302.466 105.109L302.467 105.104L301.491 104.887ZM302.236 103.844L301.71 102.994L301.71 102.994L302.236 103.844ZM306.061 104.869L306.942 104.396L306.942 104.396L306.061 104.869ZM306.185 106.145L305.232 105.844L305.23 105.85L306.185 106.145ZM302.676 117.504L303.63 117.802L303.631 117.799L302.676 117.504ZM301.836 118.552L302.31 119.433L302.323 119.425L302.336 119.418L301.836 118.552ZM301.19 121.888L300.31 122.362L300.317 122.375L300.324 122.388L301.19 121.888ZM300.367 124.96L299.867 124.094L299.854 124.102L299.841 124.11L300.367 124.96ZM297.093 124.083L296.212 124.556L296.219 124.57L296.227 124.583L297.093 124.083ZM297.916 121.011L297.416 120.145L297.403 120.153L297.39 120.161L297.916 121.011ZM300.377 117.623C300.152 117.562 300.012 117.454 299.905 117.28L298.204 118.332C298.587 118.953 299.157 119.366 299.859 119.554L300.377 117.623ZM299.92 117.306C299.805 117.107 299.777 116.921 299.827 116.697L297.875 116.26C297.715 116.974 297.822 117.673 298.188 118.306L299.92 117.306ZM299.826 116.701L302.466 105.109L300.516 104.665L297.876 116.257L299.826 116.701ZM302.467 105.104C302.508 104.922 302.591 104.801 302.762 104.695L301.71 102.994C301.087 103.379 300.674 103.953 300.515 104.67L302.467 105.104ZM302.762 104.695C302.929 104.592 303.066 104.574 303.24 104.62L303.757 102.689C303.042 102.497 302.338 102.606 301.71 102.994L302.762 104.695ZM303.24 104.62L304.804 105.04L305.322 103.108L303.757 102.689L303.24 104.62ZM304.804 105.04C304.978 105.086 305.088 105.17 305.18 105.343L306.942 104.396C306.593 103.746 306.037 103.3 305.322 103.108L304.804 105.04ZM305.18 105.343C305.276 105.52 305.288 105.667 305.232 105.844L307.139 106.445C307.36 105.745 307.289 105.041 306.942 104.396L305.18 105.343ZM305.23 105.85L301.72 117.208L303.631 117.799L307.141 106.44L305.23 105.85ZM301.722 117.205C301.653 117.424 301.535 117.571 301.336 117.686L302.336 119.418C302.969 119.052 303.412 118.5 303.63 117.802L301.722 117.205ZM301.362 117.671C301.182 117.768 301.008 117.792 300.782 117.731L300.265 119.663C300.967 119.851 301.667 119.778 302.31 119.433L301.362 117.671ZM300.782 117.731L300.377 117.623L299.859 119.554L300.265 119.663L300.782 117.731ZM299.933 122.059C300.107 122.105 300.217 122.19 300.31 122.362L302.071 121.415C301.722 120.765 301.166 120.319 300.451 120.127L299.933 122.059ZM300.324 122.388C300.439 122.587 300.454 122.745 300.407 122.921L302.338 123.438C302.529 122.725 302.423 122.023 302.056 121.388L300.324 122.388ZM300.407 122.921L300.205 123.674L302.136 124.192L302.338 123.438L300.407 122.921ZM300.205 123.674C300.158 123.85 300.066 123.98 299.867 124.094L300.867 125.826C301.502 125.46 301.945 124.905 302.136 124.192L300.205 123.674ZM299.841 124.11C299.675 124.213 299.538 124.231 299.364 124.184L298.846 126.116C299.562 126.307 300.266 126.199 300.893 125.811L299.841 124.11ZM299.364 124.184L298.379 123.92L297.861 125.852L298.846 126.116L299.364 124.184ZM298.379 123.92C298.203 123.873 298.073 123.781 297.959 123.583L296.227 124.583C296.593 125.217 297.148 125.661 297.861 125.852L298.379 123.92ZM297.974 123.609C297.871 123.419 297.854 123.252 297.906 123.058L295.974 122.541C295.788 123.235 295.872 123.924 296.212 124.556L297.974 123.609ZM297.906 123.058L298.108 122.305L296.176 121.787L295.974 122.541L297.906 123.058ZM298.108 122.305C298.16 122.111 298.258 121.975 298.442 121.862L297.39 120.161C296.78 120.538 296.362 121.093 296.176 121.787L298.108 122.305ZM298.416 121.877C298.614 121.763 298.773 121.748 298.948 121.795L299.466 119.863C298.753 119.672 298.05 119.779 297.416 120.145L298.416 121.877ZM298.948 121.795L299.933 122.059L300.451 120.127L299.466 119.863L298.948 121.795Z" fill="white"/>
</g>
<g filter="url(#filter1_d_1_49)">
<path d="M19.7055 115.685C8.27018 73.0078 33.5968 29.1409 76.2741 17.7055V17.7055C118.951 6.2702 162.818 31.5968 174.254 74.2741L233.782 296.437C243.788 333.78 221.627 372.163 184.285 382.169L164.966 387.346C127.623 397.351 89.2398 375.191 79.2339 337.848L19.7055 115.685Z" fill="url(#paint1_linear_1_49)"/>
<rect x="67.653" y="186.444" width="105" height="30" rx="10" transform="rotate(-15 67.653 186.444)" fill="#0E81C0"/>
<rect x="79.2999" y="229.911" width="105" height="30" rx="10" transform="rotate(-15 79.2999 229.911)" fill="#F86F1F"/>
<rect x="90.9468" y="273.377" width="105" height="30" rx="10" transform="rotate(-15 90.9468 273.377)" fill="#04955C"/>
<rect x="102.594" y="316.844" width="105" height="30" rx="10" transform="rotate(-15 102.594 316.844)" fill="#D6C66E"/>
<path d="M156.393 67.5045C164.891 99.2202 143.841 132.634 109.049 141.956C74.2575 151.279 39.3208 132.867 30.8226 101.151C22.3244 69.4353 43.3744 36.0215 78.1662 26.699C112.958 17.3766 147.895 35.7888 156.393 67.5045Z" fill="#EA0614" stroke="#B8000B" stroke-width="3"/>
<path d="M57.3093 95.642L58.9398 101.727C58.9812 101.882 59.0941 101.955 59.2783 101.947C59.9803 101.863 60.6308 101.74 61.2296 101.58C62.8331 101.15 63.9242 100.547 64.503 99.7708C65.096 98.97 65.2294 97.9611 64.9033 96.7441C64.6134 95.6622 63.9665 94.9866 62.9626 94.7173C61.9728 94.4234 60.483 94.5431 58.4932 95.0763L57.479 95.348C57.3244 95.3894 57.2679 95.4874 57.3093 95.642ZM55.042 87.1805L56.3698 92.1357C56.4163 92.3095 56.5169 92.3758 56.6715 92.3343L57.5118 92.1092C59.3084 91.6278 60.5381 91.0395 61.2007 90.3443C61.8775 89.6246 62.0865 88.7818 61.8277 87.8159C61.5792 86.8886 61.067 86.2908 60.2912 86.0224C59.5153 85.7541 58.3836 85.8192 56.896 86.2178C56.2199 86.399 55.6507 86.5929 55.1884 86.7996C55.0442 86.8796 54.9954 87.0066 55.042 87.1805ZM57.4643 105.725C56.9903 105.811 56.5522 105.721 56.1499 105.456C55.7425 105.172 55.4741 104.789 55.3447 104.306L50.6393 86.7451C50.5099 86.2622 50.5532 85.8054 50.7691 85.3749C50.9798 84.925 51.3215 84.616 51.7941 84.448C53.1823 83.9104 54.5429 83.463 55.8758 83.1058C61.285 81.6564 64.4632 82.6994 65.4105 86.2347C65.7263 87.4131 65.6046 88.5431 65.0455 89.6247C64.4864 90.7062 63.5933 91.546 62.3662 92.1439C62.3469 92.1491 62.3398 92.1614 62.345 92.1807C62.3554 92.2193 62.3702 92.2361 62.3895 92.2309C64.0358 92.0382 65.43 92.2962 66.5723 93.0047C67.7288 93.6887 68.4907 94.7165 68.8583 96.0881C69.4277 98.2131 69.1592 99.9932 68.053 101.428C66.9468 102.864 64.9255 103.975 61.989 104.762C60.5208 105.155 59.0126 105.476 57.4643 105.725ZM87.1068 89.6455C88.5044 94.8615 86.5952 98.1683 81.3792 99.5659C76.1632 100.964 72.8564 99.0543 71.4588 93.8383L68.252 81.8705C68.133 81.4262 68.1937 80.9958 68.4341 80.5794C68.6745 80.163 69.0169 79.8953 69.4612 79.7762L70.2726 79.5588C70.7169 79.4397 71.1473 79.5004 71.5637 79.7408C71.9801 79.9813 72.2478 80.3236 72.3669 80.768L75.6358 92.9676C76.0395 94.4744 76.6314 95.4857 77.4115 96.0014C78.2057 96.4926 79.2499 96.5648 80.5443 96.2179C81.8386 95.8711 82.6972 95.2891 83.1201 94.4718C83.5571 93.63 83.5738 92.4557 83.17 90.9488L79.9011 78.7492C79.7821 78.3048 79.8427 77.8745 80.0831 77.4581C80.3236 77.0416 80.6659 76.7739 81.1103 76.6549L81.8057 76.4685C82.2501 76.3494 82.6804 76.4101 83.0968 76.6505C83.5133 76.891 83.781 77.2333 83.9 77.6777L87.1068 89.6455ZM92.765 91.2041L97.8831 75.7634L97.8753 75.7344L97.8965 75.6976C97.8913 75.6783 97.8791 75.6712 97.8598 75.6764L89.9778 77.7884C89.5335 77.9074 89.1057 77.8564 88.6945 77.6353C88.2781 77.3949 88.0103 77.0525 87.8913 76.6082C87.7722 76.1639 87.8329 75.7335 88.0733 75.3171C88.3137 74.9007 88.6561 74.633 89.1004 74.5139L100.112 71.5634C100.556 71.4443 100.987 71.505 101.403 71.7454C101.82 71.9858 102.087 72.3282 102.206 72.7725C102.496 73.8543 102.466 74.9391 102.116 76.0269L96.9975 91.4677L97.0052 91.4967L96.984 91.5334C96.9892 91.5527 97.0015 91.5598 97.0208 91.5546L104.903 89.4426C105.347 89.3236 105.777 89.3843 106.194 89.6247C106.605 89.8458 106.87 90.1785 106.989 90.6228C107.108 91.0671 107.048 91.4975 106.807 91.9139C106.567 92.3303 106.224 92.5981 105.78 92.7171L94.7686 95.6677C94.3242 95.7867 93.8939 95.726 93.4775 95.4856C93.061 95.2452 92.7933 94.9028 92.6743 94.4585C92.3844 93.3767 92.4146 92.2919 92.765 91.2041ZM111.074 86.2982L116.192 70.8574L116.185 70.8284L116.206 70.7917C116.201 70.7724 116.188 70.7653 116.169 70.7705L108.287 72.8824C107.843 73.0015 107.415 72.9505 107.004 72.7294C106.587 72.489 106.32 72.1466 106.2 71.7023C106.081 71.2579 106.142 70.8276 106.383 70.4112C106.623 69.9948 106.965 69.727 107.41 69.608L118.421 66.6574C118.866 66.5384 119.296 66.599 119.712 66.8395C120.129 67.0799 120.396 67.4222 120.515 67.8666C120.805 68.9484 120.775 70.0332 120.425 71.121L115.307 86.5617L115.314 86.5907L115.293 86.6275C115.298 86.6468 115.311 86.6538 115.33 86.6487L123.212 84.5367C123.656 84.4177 124.087 84.4783 124.503 84.7187C124.914 84.9398 125.179 85.2726 125.298 85.7169C125.418 86.1612 125.357 86.5916 125.116 87.008C124.876 87.4244 124.534 87.6921 124.089 87.8112L113.078 90.7617C112.633 90.8808 112.203 90.8201 111.787 90.5797C111.37 90.3393 111.103 89.9969 110.983 89.5526C110.694 88.4707 110.724 87.3859 111.074 86.2982ZM131.359 79.0303C130.896 79.1546 130.458 79.1061 130.047 78.885C129.631 78.6446 129.351 78.2952 129.207 77.8367L125.698 66.478C125.559 66.0388 125.601 65.6136 125.822 65.2024C126.043 64.7912 126.376 64.526 126.82 64.407L128.385 63.9877C128.829 63.8686 129.25 63.9319 129.647 64.1775C130.044 64.4231 130.292 64.7706 130.392 65.2201L133.032 76.8118C133.137 77.2806 133.069 77.7232 132.829 78.1396C132.583 78.5367 132.229 78.7974 131.765 78.9216L131.359 79.0303ZM132.676 81.1622C133.12 81.0432 133.541 81.1064 133.938 81.352C134.355 81.5924 134.622 81.9348 134.741 82.3791L134.943 83.1326C135.062 83.5769 135.002 84.0073 134.761 84.4237C134.54 84.8349 134.207 85.1 133.763 85.2191L132.778 85.4831C132.334 85.6022 131.903 85.5415 131.487 85.3011C131.09 85.0555 130.832 84.7105 130.713 84.2662L130.511 83.5128C130.392 83.0684 130.443 82.6407 130.664 82.2294C130.904 81.813 131.247 81.5453 131.691 81.4262L132.676 81.1622Z" fill="white"/>
<path d="M59.2783 101.947L59.3214 102.946L59.3598 102.945L59.3979 102.94L59.2783 101.947ZM64.503 99.7708L65.3047 100.369L65.3067 100.366L64.503 99.7708ZM62.9626 94.7173L62.678 95.6759L62.6907 95.6797L62.7034 95.6831L62.9626 94.7173ZM61.2007 90.3443L61.9246 91.0343L61.9292 91.0293L61.2007 90.3443ZM60.2912 86.0224L60.618 85.0773L60.618 85.0773L60.2912 86.0224ZM55.1884 86.7996L54.7803 85.8867L54.7408 85.9043L54.7031 85.9253L55.1884 86.7996ZM57.4643 105.725L57.3054 104.738L57.296 104.74L57.2866 104.741L57.4643 105.725ZM56.1499 105.456L55.5778 106.277L55.5888 106.284L55.6 106.292L56.1499 105.456ZM50.7691 85.3749L51.663 85.8231L51.669 85.8112L51.6747 85.7991L50.7691 85.3749ZM51.7941 84.448L52.1292 85.3902L52.1423 85.3855L52.1553 85.3805L51.7941 84.448ZM65.0455 89.6247L64.1572 89.1654L64.1572 89.1654L65.0455 89.6247ZM62.3662 92.1439L62.625 93.1099L62.7179 93.085L62.8043 93.0429L62.3662 92.1439ZM62.3895 92.2309L62.2733 91.2377L62.201 91.2461L62.1307 91.265L62.3895 92.2309ZM66.5723 93.0047L66.0452 93.8545L66.0542 93.86L66.0632 93.8654L66.5723 93.0047ZM68.053 101.428L67.261 100.818L67.261 100.818L68.053 101.428ZM56.3433 95.9008L57.9739 101.986L59.9058 101.468L58.2752 95.3832L56.3433 95.9008ZM57.9739 101.986C58.0458 102.254 58.2091 102.541 58.5107 102.737C58.7956 102.922 59.0967 102.956 59.3214 102.946L59.2352 100.948C59.2756 100.946 59.4282 100.948 59.6003 101.06C59.7891 101.182 59.8753 101.355 59.9058 101.468L57.9739 101.986ZM59.3979 102.94C60.1405 102.851 60.838 102.72 61.4885 102.546L60.9708 100.614C60.4235 100.76 59.8201 100.875 59.1587 100.954L59.3979 102.94ZM61.4885 102.546C63.1688 102.095 64.5248 101.414 65.3047 100.369L63.7013 99.173C63.3236 99.6796 62.4974 100.205 60.9708 100.614L61.4885 102.546ZM65.3067 100.366C66.1277 99.2571 66.2514 97.9116 65.8692 96.4852L63.9373 97.0029C64.2074 98.0106 64.0642 98.683 63.6994 99.1757L65.3067 100.366ZM65.8692 96.4852C65.4956 95.091 64.602 94.1218 63.2217 93.7514L62.7034 95.6831C63.331 95.8515 63.7312 96.2334 63.9373 97.0029L65.8692 96.4852ZM63.2472 93.7586C61.9769 93.3815 60.2568 93.5684 58.2344 94.1103L58.752 96.0422C60.7092 95.5178 61.9687 95.4654 62.678 95.6759L63.2472 93.7586ZM58.2344 94.1103L57.2202 94.3821L57.7378 96.314L58.752 96.0422L58.2344 94.1103ZM57.2202 94.3821C56.994 94.4427 56.6623 94.5929 56.4546 94.9526C56.247 95.3123 56.2827 95.6746 56.3433 95.9008L58.2752 95.3832C58.2944 95.4548 58.3378 95.6909 58.1867 95.9526C58.0356 96.2143 57.8094 96.2948 57.7378 96.314L57.2202 94.3821ZM54.0761 87.4393L55.4038 92.3945L57.3357 91.8768L56.0079 86.9216L54.0761 87.4393ZM55.4038 92.3945C55.46 92.6041 55.5946 92.9299 55.9301 93.1509C56.2908 93.3884 56.6727 93.3693 56.9303 93.3003L56.4126 91.3684C56.5157 91.3408 56.7701 91.3093 57.0301 91.4806C57.2651 91.6353 57.3261 91.8411 57.3357 91.8768L55.4038 92.3945ZM56.9303 93.3003L57.7706 93.0751L57.253 91.1432L56.4126 91.3684L56.9303 93.3003ZM57.7706 93.0751C59.6063 92.5832 61.0635 91.9376 61.9246 91.0342L60.4769 89.6543C60.0126 90.1414 59.0106 90.6723 57.253 91.1432L57.7706 93.0751ZM61.9292 91.0293C62.8468 90.0536 63.1407 88.8525 62.7936 87.557L60.8618 88.0747C61.0323 88.7111 60.9083 89.1956 60.4722 89.6592L61.9292 91.0293ZM62.7936 87.557C62.476 86.3718 61.7644 85.4738 60.618 85.0773L59.9643 86.9675C60.3697 87.1077 60.6824 87.4053 60.8618 88.0747L62.7936 87.557ZM60.618 85.0773C59.5495 84.7078 58.1735 84.8402 56.6372 85.2519L57.1549 87.1837C58.5937 86.7982 59.4811 86.8004 59.9643 86.9675L60.618 85.0773ZM56.6372 85.2519C55.9278 85.442 55.3051 85.652 54.7803 85.8867L55.5966 87.7125C55.9962 87.5338 56.512 87.356 57.1549 87.1837L56.6372 85.2519ZM54.7031 85.9253C54.4711 86.0541 54.2358 86.2695 54.1103 86.596C53.9889 86.9118 54.0156 87.2137 54.0761 87.4393L56.0079 86.9216C56.0218 86.9734 56.0497 87.1248 55.9771 87.3137C55.9004 87.5132 55.7616 87.6252 55.6738 87.6739L54.7031 85.9253ZM57.2866 104.741C57.0653 104.781 56.8878 104.745 56.6999 104.621L55.6 106.292C56.2167 106.698 56.9154 106.841 57.6421 106.71L57.2866 104.741ZM56.7221 104.636C56.5093 104.488 56.3794 104.304 56.3106 104.047L54.3787 104.564C54.5687 105.274 54.9757 105.857 55.5778 106.277L56.7221 104.636ZM56.3106 104.047L51.6053 86.4863L49.6734 87.0039L54.3787 104.564L56.3106 104.047ZM51.6053 86.4863C51.5366 86.23 51.5614 86.0258 51.663 85.8231L49.8752 84.9266C49.545 85.585 49.4832 86.2943 49.6734 87.0039L51.6053 86.4863ZM51.6747 85.7991C51.7708 85.5938 51.9055 85.4697 52.1292 85.3902L51.4591 83.5058C50.7375 83.7623 50.1889 84.2562 49.8635 84.9506L51.6747 85.7991ZM52.1553 85.3805C53.5125 84.8548 54.8389 84.4189 56.1347 84.0717L55.617 82.1399C54.2468 82.507 52.852 82.9659 51.433 83.5155L52.1553 85.3805ZM56.1347 84.0717C58.7648 83.367 60.6866 83.3186 62.0046 83.7511C63.2387 84.1561 64.0486 85.0155 64.4446 86.4935L66.3765 85.9758C65.8252 83.9185 64.5723 82.4888 62.6282 81.8508C60.7679 81.2404 58.396 81.3953 55.617 82.1399L56.1347 84.0717ZM64.4446 86.4935C64.696 87.4318 64.6016 88.3057 64.1572 89.1654L65.9338 90.0839C66.6076 88.7805 66.7566 87.3944 66.3765 85.9758L64.4446 86.4935ZM64.1572 89.1654C63.7087 90.0328 62.9863 90.7294 61.9282 91.245L62.8043 93.0429C64.2003 92.3626 65.264 91.3796 65.9338 90.0839L64.1572 89.1654ZM62.1074 91.178C61.9489 91.2205 61.6633 91.3402 61.4804 91.657C61.2975 91.9738 61.3366 92.2809 61.3791 92.4395L63.3109 91.9219C63.3482 92.0611 63.3883 92.3525 63.2125 92.657C63.0366 92.9616 62.7643 93.0726 62.625 93.1099L62.1074 91.178ZM61.3791 92.4395C61.3975 92.5082 61.4533 92.7025 61.6157 92.8857C61.7074 92.9891 61.8511 93.1088 62.0554 93.1779C62.2669 93.2495 62.4745 93.2434 62.6483 93.1968L62.1307 91.265C62.2949 91.221 62.4934 91.2147 62.6963 91.2834C62.8921 91.3496 63.0278 91.4637 63.1121 91.5587C63.2597 91.7252 63.3029 91.8919 63.3109 91.9219L61.3791 92.4395ZM62.5057 93.2241C63.9812 93.0514 65.1364 93.2908 66.0452 93.8545L67.0994 92.1548C65.7236 91.3015 64.0903 91.025 62.2733 91.2377L62.5057 93.2241ZM66.0632 93.8654C66.9807 94.408 67.5882 95.212 67.8923 96.3469L69.8242 95.8293C69.3932 94.2209 68.4768 92.9693 67.0814 92.1439L66.0632 93.8654ZM67.8923 96.3469C68.4003 98.2428 68.1357 99.6831 67.261 100.818L68.845 102.039C70.1828 100.303 70.455 98.1834 69.8242 95.8293L67.8923 96.3469ZM67.261 100.818C66.3527 101.996 64.5853 103.031 61.7302 103.796L62.2479 105.727C65.2656 104.919 67.5408 103.731 68.845 102.039L67.261 100.818ZM61.7302 103.796C60.2959 104.18 58.8211 104.494 57.3054 104.738L57.6233 106.713C59.2041 106.458 60.7457 106.13 62.2479 105.727L61.7302 103.796ZM68.4341 80.5794L67.5681 80.0794L67.5681 80.0794L68.4341 80.5794ZM71.5637 79.7408L72.0637 78.8748L72.0637 78.8748L71.5637 79.7408ZM77.4115 96.0014L76.86 96.8356L76.8726 96.8439L76.8855 96.8519L77.4115 96.0014ZM83.1201 94.4718L82.2326 94.011L82.2319 94.0122L83.1201 94.4718ZM86.1409 89.9043C86.7998 92.3634 86.6323 94.1949 85.8571 95.5376C85.0819 96.8803 83.5795 97.9411 81.1204 98.6L81.6381 100.532C84.395 99.7931 86.4552 98.5017 87.5892 96.5376C88.7231 94.5735 88.8114 92.1435 88.0727 89.3867L86.1409 89.9043ZM81.1204 98.6C78.6613 99.2589 76.8299 99.0914 75.4871 98.3162C74.1444 97.541 73.0837 96.0386 72.4247 93.5795L70.4929 94.0972C71.2316 96.8541 72.523 98.9143 74.4871 100.048C76.4512 101.182 78.8812 101.271 81.6381 100.532L81.1204 98.6ZM72.4247 93.5795L69.218 81.6117L67.2861 82.1293L70.4929 94.0972L72.4247 93.5795ZM69.218 81.6117C69.1709 81.4362 69.1856 81.2777 69.3001 81.0794L67.5681 80.0794C67.2017 80.7139 67.095 81.4162 67.2861 82.1293L69.218 81.6117ZM69.3001 81.0794C69.4146 80.8811 69.5445 80.7892 69.72 80.7421L69.2024 78.8103C68.4892 79.0014 67.9344 79.4449 67.5681 80.0794L69.3001 81.0794ZM69.72 80.7421L70.5314 80.5247L70.0138 78.5929L69.2024 78.8103L69.72 80.7421ZM70.5314 80.5247C70.7069 80.4777 70.8654 80.4924 71.0637 80.6069L72.0637 78.8748C71.4292 78.5085 70.7269 78.4018 70.0138 78.5929L70.5314 80.5247ZM71.0637 80.6069C71.262 80.7214 71.3539 80.8513 71.401 81.0268L73.3328 80.5091C73.1417 79.796 72.6982 79.2411 72.0637 78.8748L71.0637 80.6069ZM71.401 81.0268L74.6698 93.2264L76.6017 92.7088L73.3328 80.5091L71.401 81.0268ZM74.6698 93.2264C75.0976 94.8227 75.7778 96.1201 76.86 96.8356L77.963 95.1672C77.4851 94.8513 76.9815 94.1261 76.6017 92.7088L74.6698 93.2264ZM76.8855 96.8519C78.0008 97.5416 79.36 97.5705 80.8031 97.1839L80.2855 95.252C79.1399 95.559 78.4106 95.4435 77.9375 95.1509L76.8855 96.8519ZM80.8031 97.1839C82.2434 96.7979 83.4065 96.0944 84.0083 94.9313L82.2319 94.0122C81.988 94.4838 81.4339 94.9443 80.2855 95.252L80.8031 97.1839ZM84.0076 94.9325C84.6143 93.764 84.5652 92.2921 84.1359 90.69L82.2041 91.2076C82.5823 92.6192 82.5 93.4959 82.2326 94.011L84.0076 94.9325ZM84.1359 90.69L80.867 78.4903L78.9352 79.008L82.2041 91.2076L84.1359 90.69ZM80.867 78.4903C80.82 78.3148 80.8347 78.1564 80.9492 77.9581L79.2171 76.9581C78.8508 77.5926 78.7441 78.2948 78.9352 79.008L80.867 78.4903ZM80.9492 77.9581C81.0637 77.7597 81.1936 77.6678 81.3691 77.6208L80.8514 75.6889C80.1383 75.88 79.5835 76.3235 79.2171 76.9581L80.9492 77.9581ZM81.3691 77.6208L82.0645 77.4344L81.5469 75.5026L80.8514 75.6889L81.3691 77.6208ZM82.0645 77.4344C82.2401 77.3874 82.3985 77.4021 82.5968 77.5166L83.5968 75.7845C82.9623 75.4182 82.2601 75.3115 81.5469 75.5026L82.0645 77.4344ZM82.5968 77.5166C82.7952 77.6311 82.8871 77.761 82.9341 77.9365L84.866 77.4188C84.6749 76.7057 84.2313 76.1508 83.5968 75.7845L82.5968 77.5166ZM82.9341 77.9365L86.1409 89.9043L88.0727 89.3867L84.866 77.4188L82.9341 77.9365ZM92.765 91.2041L91.8158 90.8895L91.8132 90.8975L92.765 91.2041ZM97.8831 75.7634L98.8323 76.078L98.9265 75.7938L98.849 75.5045L97.8831 75.7634ZM97.8753 75.7344L97.0093 75.2344L96.8022 75.5931L96.9094 75.9932L97.8753 75.7344ZM97.8965 75.6976L98.7626 76.1976L98.9697 75.8389L98.8624 75.4388L97.8965 75.6976ZM88.6945 77.6353L88.1945 78.5013L88.2076 78.5089L88.2209 78.5161L88.6945 77.6353ZM88.0733 75.3171L87.2073 74.8171L87.2073 74.8171L88.0733 75.3171ZM102.116 76.0269L103.065 76.3415L103.067 76.3335L102.116 76.0269ZM96.9975 91.4677L96.0483 91.153L95.9541 91.4373L96.0316 91.7265L96.9975 91.4677ZM97.0052 91.4967L97.8713 91.9967L98.0784 91.6379L97.9712 91.2378L97.0052 91.4967ZM96.984 91.5334L96.118 91.0334L95.9109 91.3921L96.0181 91.7922L96.984 91.5334ZM106.194 89.6247L105.694 90.4907L105.707 90.4983L105.72 90.5055L106.194 89.6247ZM106.807 91.9139L105.941 91.4139L105.941 91.4139L106.807 91.9139ZM93.4775 95.4856L92.9775 96.3517L92.9775 96.3517L93.4775 95.4856ZM93.7143 91.5188L98.8323 76.078L96.9339 75.4487L91.8158 90.8895L93.7143 91.5188ZM98.849 75.5045L98.8412 75.4756L96.9094 75.9932L96.9171 76.0222L98.849 75.5045ZM98.7414 76.2343L98.7626 76.1976L97.0305 75.1977L97.0093 75.2344L98.7414 76.2343ZM98.8624 75.4388C98.82 75.2803 98.7003 74.9947 98.3835 74.8118C98.0666 74.6289 97.7595 74.668 97.601 74.7105L98.1186 76.6423C97.9794 76.6797 97.688 76.7197 97.3835 76.5439C97.0789 76.368 96.9679 76.0957 96.9306 75.9565L98.8624 75.4388ZM97.601 74.7105L89.719 76.8225L90.2366 78.7543L98.1186 76.6423L97.601 74.7105ZM89.719 76.8225C89.5248 76.8745 89.3586 76.857 89.168 76.7545L88.2209 78.5161C88.8528 78.8558 89.5422 78.9404 90.2366 78.7543L89.719 76.8225ZM89.1945 76.7693C88.9962 76.6548 88.9042 76.5249 88.8572 76.3494L86.9254 76.867C87.1164 77.5802 87.56 78.135 88.1945 78.5013L89.1945 76.7693ZM88.8572 76.3494C88.8102 76.1739 88.8248 76.0154 88.9393 75.8171L87.2073 74.8171C86.841 75.4516 86.7343 76.1539 86.9254 76.867L88.8572 76.3494ZM88.9393 75.8171C89.0538 75.6188 89.1837 75.5268 89.3592 75.4798L88.8416 73.548C88.1285 73.7391 87.5736 74.1826 87.2073 74.8171L88.9393 75.8171ZM89.3592 75.4798L100.371 72.5293L99.8532 70.5974L88.8416 73.548L89.3592 75.4798ZM100.371 72.5293C100.546 72.4823 100.705 72.4969 100.903 72.6114L101.903 70.8794C101.269 70.513 100.566 70.4063 99.8532 70.5974L100.371 72.5293ZM100.903 72.6114C101.101 72.7259 101.193 72.8558 101.24 73.0313L103.172 72.5137C102.981 71.8005 102.538 71.2457 101.903 70.8794L100.903 72.6114ZM101.24 73.0313C101.479 73.9233 101.456 74.8118 101.164 75.7203L103.067 76.3335C103.475 75.0665 103.513 73.7854 103.172 72.5137L101.24 73.0313ZM101.166 75.7123L96.0483 91.153L97.9467 91.7823L103.065 76.3415L101.166 75.7123ZM96.0316 91.7265L96.0393 91.7555L97.9712 91.2378L97.9634 91.2089L96.0316 91.7265ZM96.1392 90.9966L96.118 91.0334L97.8501 92.0334L97.8713 91.9967L96.1392 90.9966ZM96.0181 91.7922C96.0606 91.9508 96.1803 92.2363 96.4971 92.4192C96.8139 92.6021 97.121 92.563 97.2796 92.5205L96.762 90.5887C96.9012 90.5514 97.1925 90.5113 97.4971 90.6872C97.8017 90.863 97.9126 91.1353 97.95 91.2746L96.0181 91.7922ZM97.2796 92.5205L105.162 90.4086L104.644 88.4767L96.762 90.5887L97.2796 92.5205ZM105.162 90.4086C105.337 90.3615 105.496 90.3762 105.694 90.4907L106.694 88.7587C106.059 88.3923 105.357 88.2856 104.644 88.4767L105.162 90.4086ZM105.72 90.5055C105.893 90.5982 105.977 90.7081 106.023 90.8816L107.955 90.364C107.764 89.6488 107.317 89.0934 106.667 88.7439L105.72 90.5055ZM106.023 90.8816C106.07 91.0571 106.056 91.2156 105.941 91.4139L107.673 92.4139C108.04 91.7794 108.146 91.0771 107.955 90.364L106.023 90.8816ZM105.941 91.4139C105.827 91.6122 105.697 91.7042 105.521 91.7512L106.039 93.6831C106.752 93.492 107.307 93.0484 107.673 92.4139L105.941 91.4139ZM105.521 91.7512L94.5097 94.7017L95.0274 96.6336L106.039 93.6831L105.521 91.7512ZM94.5097 94.7017C94.3342 94.7488 94.1758 94.7341 93.9775 94.6196L92.9775 96.3517C93.612 96.718 94.3142 96.8247 95.0274 96.6336L94.5097 94.7017ZM93.9775 94.6196C93.7791 94.5051 93.6872 94.3752 93.6402 94.1997L91.7083 94.7173C91.8994 95.4305 92.343 95.9853 92.9775 96.3517L93.9775 94.6196ZM93.6402 94.1997C93.4012 93.3077 93.4242 92.4193 93.7169 91.5107L91.8132 90.8975C91.4051 92.1645 91.3676 93.4456 91.7083 94.7173L93.6402 94.1997ZM111.074 86.2982L110.125 85.9836L110.122 85.9916L111.074 86.2982ZM116.192 70.8574L117.141 71.172L117.236 70.8878L117.158 70.5986L116.192 70.8574ZM116.185 70.8284L115.318 70.3285L115.111 70.6872L115.219 71.0873L116.185 70.8284ZM116.206 70.7917L117.072 71.2917L117.279 70.933L117.172 70.5329L116.206 70.7917ZM107.004 72.7294L106.504 73.5954L106.517 73.603L106.53 73.6102L107.004 72.7294ZM106.383 70.4112L105.516 69.9112L105.516 69.9112L106.383 70.4112ZM120.425 71.121L121.374 71.4356L121.377 71.4276L120.425 71.121ZM115.307 86.5617L114.357 86.2471L114.263 86.5313L114.341 86.8206L115.307 86.5617ZM115.314 86.5907L116.18 87.0907L116.388 86.732L116.28 86.3319L115.314 86.5907ZM115.293 86.6275L114.427 86.1275L114.22 86.4862L114.327 86.8863L115.293 86.6275ZM124.503 84.7187L124.003 85.5848L124.016 85.5923L124.029 85.5995L124.503 84.7187ZM125.116 87.008L124.25 86.508L124.25 86.508L125.116 87.008ZM111.787 90.5797L111.287 91.4457L111.287 91.4457L111.787 90.5797ZM112.023 86.6128L117.141 71.172L115.243 70.5428L110.125 85.9836L112.023 86.6128ZM117.158 70.5986L117.15 70.5696L115.219 71.0873L115.226 71.1162L117.158 70.5986ZM117.051 71.3284L117.072 71.2917L115.34 70.2917L115.318 70.3285L117.051 71.3284ZM117.172 70.5329C117.129 70.3743 117.009 70.0888 116.693 69.9059C116.376 69.723 116.069 69.7621 115.91 69.8046L116.428 71.7364C116.289 71.7737 115.997 71.8138 115.693 71.6379C115.388 71.4621 115.277 71.1897 115.24 71.0505L117.172 70.5329ZM115.91 69.8046L108.028 71.9165L108.546 73.8484L116.428 71.7364L115.91 69.8046ZM108.028 71.9165C107.834 71.9686 107.668 71.9511 107.477 71.8486L106.53 73.6102C107.162 73.9499 107.851 74.0345 108.546 73.8484L108.028 71.9165ZM107.504 71.8634C107.305 71.7489 107.213 71.619 107.166 71.4435L105.235 71.9611C105.426 72.6742 105.869 73.2291 106.504 73.5954L107.504 71.8634ZM107.166 71.4435C107.119 71.2679 107.134 71.1095 107.249 70.9112L105.516 69.9112C105.15 70.5457 105.043 71.2479 105.235 71.9611L107.166 71.4435ZM107.249 70.9112C107.363 70.7128 107.493 70.6209 107.668 70.5739L107.151 68.642C106.438 68.8331 105.883 69.2767 105.516 69.9112L107.249 70.9112ZM107.668 70.5739L118.68 67.6233L118.162 65.6915L107.151 68.642L107.668 70.5739ZM118.68 67.6233C118.856 67.5763 119.014 67.591 119.212 67.7055L120.212 65.9734C119.578 65.6071 118.876 65.5004 118.162 65.6915L118.68 67.6233ZM119.212 67.7055C119.411 67.82 119.503 67.9499 119.55 68.1254L121.481 67.6078C121.29 66.8946 120.847 66.3398 120.212 65.9734L119.212 67.7055ZM119.55 68.1254C119.789 69.0174 119.766 69.9058 119.473 70.8143L121.377 71.4276C121.785 70.1606 121.822 68.8795 121.481 67.6078L119.55 68.1254ZM119.475 70.8063L114.357 86.2471L116.256 86.8764L121.374 71.4356L119.475 70.8063ZM114.341 86.8206L114.349 86.8495L116.28 86.3319L116.273 86.3029L114.341 86.8206ZM114.448 86.0907L114.427 86.1275L116.159 87.1275L116.18 87.0907L114.448 86.0907ZM114.327 86.8863C114.37 87.0448 114.489 87.3304 114.806 87.5133C115.123 87.6962 115.43 87.6571 115.589 87.6146L115.071 85.6827C115.21 85.6454 115.502 85.6054 115.806 85.7812C116.111 85.9571 116.222 86.2294 116.259 86.3686L114.327 86.8863ZM115.589 87.6146L123.471 85.5026L122.953 83.5708L115.071 85.6827L115.589 87.6146ZM123.471 85.5026C123.646 85.4556 123.805 85.4703 124.003 85.5848L125.003 83.8527C124.369 83.4864 123.666 83.3797 122.953 83.5708L123.471 85.5026ZM124.029 85.5995C124.202 85.6923 124.286 85.8022 124.333 85.9757L126.264 85.4581C126.073 84.7429 125.627 84.1874 124.977 83.838L124.029 85.5995ZM124.333 85.9757C124.38 86.1512 124.365 86.3097 124.25 86.508L125.982 87.508C126.349 86.8735 126.455 86.1712 126.264 85.4581L124.333 85.9757ZM124.25 86.508C124.136 86.7063 124.006 86.7982 123.831 86.8453L124.348 88.7771C125.061 88.586 125.616 88.1425 125.982 87.508L124.25 86.508ZM123.831 86.8453L112.819 89.7958L113.337 91.7277L124.348 88.7771L123.831 86.8453ZM112.819 89.7958C112.643 89.8428 112.485 89.8282 112.287 89.7137L111.287 91.4457C111.921 91.8121 112.623 91.9187 113.337 91.7277L112.819 89.7958ZM112.287 89.7137C112.088 89.5992 111.996 89.4693 111.949 89.2938L110.018 89.8114C110.209 90.5245 110.652 91.0794 111.287 91.4457L112.287 89.7137ZM111.949 89.2938C111.71 88.4018 111.733 87.5133 112.026 86.6048L110.122 85.9916C109.714 87.2586 109.677 88.5397 110.018 89.8114L111.949 89.2938ZM130.047 78.885L129.547 79.7511L129.56 79.7586L129.574 79.7658L130.047 78.885ZM129.207 77.8367L128.252 78.1319L128.253 78.1355L129.207 77.8367ZM125.698 66.478L126.653 66.1828L126.652 66.1775L125.698 66.478ZM125.822 65.2024L124.941 64.7289L124.941 64.7289L125.822 65.2024ZM129.647 64.1775L130.173 63.327L130.173 63.327L129.647 64.1775ZM130.392 65.2201L129.416 65.4368L129.417 65.4422L130.392 65.2201ZM133.032 76.8118L134.008 76.5934L134.007 76.5897L133.032 76.8118ZM132.829 78.1396L133.679 78.6656L133.687 78.6528L133.695 78.6396L132.829 78.1396ZM133.938 81.352L133.412 82.2025L133.425 82.2105L133.438 82.218L133.938 81.352ZM134.761 84.4237L133.895 83.9237L133.888 83.9368L133.881 83.9501L134.761 84.4237ZM131.487 85.3011L130.961 86.1515L130.974 86.1595L130.987 86.1671L131.487 85.3011ZM130.664 82.2294L129.798 81.7294L129.79 81.7425L129.783 81.7559L130.664 82.2294ZM131.101 78.0644C130.875 78.1248 130.701 78.101 130.521 78.0043L129.574 79.7658C130.216 80.1112 130.916 80.1844 131.618 79.9963L131.101 78.0644ZM130.547 78.019C130.348 77.9039 130.23 77.7568 130.162 77.5379L128.253 78.1355C128.471 78.8336 128.914 79.3854 129.547 79.7511L130.547 78.019ZM130.163 77.5415L126.653 66.1828L124.742 66.7732L128.252 78.1319L130.163 77.5415ZM126.652 66.1775C126.596 65.9997 126.607 65.8533 126.703 65.6759L124.941 64.7289C124.594 65.374 124.523 66.078 124.744 66.7785L126.652 66.1775ZM126.703 65.6759C126.795 65.5034 126.905 65.4194 127.079 65.3729L126.561 63.441C125.846 63.6327 125.291 64.0789 124.941 64.7289L126.703 65.6759ZM127.079 65.3729L128.644 64.9536L128.126 63.0218L126.561 63.441L127.079 65.3729ZM128.644 64.9536C128.817 64.9071 128.954 64.9249 129.121 65.028L130.173 63.327C129.545 62.9388 128.841 62.8301 128.126 63.0218L128.644 64.9536ZM129.121 65.028C129.292 65.1339 129.376 65.2548 129.416 65.4367L131.368 65.0035C131.209 64.2865 130.796 63.7123 130.173 63.327L129.121 65.028ZM129.417 65.4422L132.057 77.0339L134.007 76.5897L131.367 64.9981L129.417 65.4422ZM132.056 77.0302C132.106 77.254 132.078 77.4402 131.963 77.6396L133.695 78.6396C134.061 78.0062 134.168 77.3072 134.008 76.5934L132.056 77.0302ZM131.979 77.6136C131.871 77.7874 131.732 77.8954 131.506 77.9557L132.024 79.8876C132.726 79.6995 133.296 79.286 133.679 78.6656L131.979 77.6136ZM131.506 77.9557L131.101 78.0644L131.618 79.9963L132.024 79.8876L131.506 77.9557ZM132.935 82.1281C133.108 82.0817 133.246 82.0995 133.412 82.2025L134.464 80.5015C133.837 80.1134 133.132 80.0047 132.417 80.1963L132.935 82.1281ZM133.438 82.218C133.637 82.3325 133.728 82.4624 133.776 82.638L135.707 82.1203C135.516 81.4072 135.073 80.8523 134.438 80.486L133.438 82.218ZM133.776 82.638L133.977 83.3914L135.909 82.8737L135.707 82.1203L133.776 82.638ZM133.977 83.3914C134.024 83.5669 134.01 83.7253 133.895 83.9237L135.627 84.9237C135.994 84.2892 136.1 83.5869 135.909 82.8737L133.977 83.3914ZM133.881 83.9501C133.788 84.1226 133.678 84.2067 133.504 84.2532L134.022 86.185C134.737 85.9934 135.293 85.5472 135.642 84.8972L133.881 83.9501ZM133.504 84.2532L132.519 84.5172L133.037 86.449L134.022 86.185L133.504 84.2532ZM132.519 84.5172C132.344 84.5642 132.185 84.5495 131.987 84.435L130.987 86.1671C131.621 86.5334 132.324 86.6401 133.037 86.449L132.519 84.5172ZM132.013 84.4506C131.829 84.3367 131.731 84.2016 131.678 84.0074L129.747 84.525C129.933 85.2195 130.351 85.7742 130.961 86.1515L132.013 84.4506ZM131.678 84.0074L131.477 83.2539L129.545 83.7716L129.747 84.525L131.678 84.0074ZM131.477 83.2539C131.425 83.0597 131.442 82.8936 131.545 82.703L129.783 81.7559C129.443 82.3877 129.359 83.0771 129.545 83.7716L131.477 83.2539ZM131.53 82.7294C131.644 82.5311 131.774 82.4392 131.95 82.3921L131.432 80.4603C130.719 80.6514 130.164 81.0949 129.798 81.7294L131.53 82.7294ZM131.95 82.3921L132.935 82.1281L132.417 80.1963L131.432 80.4603L131.95 82.3921Z" fill="white"/>
</g>
<g filter="url(#filter2_d_1_49)">
<path d="M16.656 328.056C15.184 328.056 13.904 327.544 12.816 326.52C11.728 325.432 11.184 324.152 11.184 322.68V322.392C11.184 320.92 11.728 319.64 12.816 318.552C13.904 317.464 15.184 316.92 16.656 316.92H57.552C59.024 316.92 60.304 317.464 61.392 318.552C62.48 319.64 63.024 320.92 63.024 322.392V322.68C63.024 324.152 62.48 325.432 61.392 326.52C60.304 327.544 59.024 328.056 57.552 328.056H44.688C44.176 328.056 43.92 328.344 43.92 328.92V381.528C43.92 383 43.376 384.28 42.288 385.368C41.2 386.456 39.92 387 38.448 387H35.76C34.288 387 33.008 386.456 31.92 385.368C30.832 384.28 30.288 383 30.288 381.528V328.92C30.288 328.344 30.032 328.056 29.52 328.056H16.656ZM81.306 387C79.834 387 78.554 386.456 77.466 385.368C76.378 384.28 75.834 383 75.834 381.528V322.392C75.834 320.92 76.378 319.64 77.466 318.552C78.554 317.464 79.834 316.92 81.306 316.92H113.946C115.418 316.92 116.698 317.464 117.786 318.552C118.874 319.64 119.418 320.92 119.418 322.392C119.418 323.864 118.874 325.144 117.786 326.232C116.698 327.256 115.418 327.768 113.946 327.768H90.138C89.562 327.768 89.274 328.056 89.274 328.632V344.088C89.274 344.664 89.562 344.952 90.138 344.952H112.314C113.786 344.952 115.002 345.464 115.962 346.488C116.986 347.512 117.498 348.728 117.498 350.136C117.498 351.544 116.986 352.76 115.962 353.784C115.002 354.744 113.786 355.224 112.314 355.224H90.138C89.562 355.224 89.274 355.512 89.274 356.088V375.288C89.274 375.864 89.562 376.152 90.138 376.152H113.946C115.418 376.152 116.698 376.696 117.786 377.784C118.874 378.808 119.418 380.056 119.418 381.528C119.418 383 118.874 384.28 117.786 385.368C116.698 386.456 115.418 387 113.946 387H81.306ZM152.039 357.432C144.359 354.872 138.791 351.768 135.335 348.12C131.943 344.472 130.247 340.056 130.247 334.872C130.247 329.048 132.199 324.44 136.103 321.048C140.007 317.656 145.479 315.96 152.519 315.96C158.471 315.96 163.655 316.632 168.071 317.976C169.607 318.424 170.823 319.352 171.719 320.76C172.679 322.104 173.159 323.608 173.159 325.272V326.136C173.159 327.352 172.615 328.312 171.527 329.016C170.439 329.656 169.319 329.752 168.167 329.304C163.367 327.448 158.471 326.52 153.479 326.52C150.279 326.52 147.847 327.256 146.183 328.728C144.519 330.2 143.687 332.248 143.687 334.872C143.687 339.48 146.695 342.776 152.711 344.76C161.351 347.512 167.335 350.648 170.663 354.168C174.055 357.688 175.75 362.232 175.75 367.8C175.75 381.24 167.463 387.96 150.887 387.96C145.703 387.96 140.999 387.16 136.775 385.56C135.239 384.984 134.023 383.992 133.127 382.584C132.295 381.176 131.879 379.608 131.879 377.88V376.728C131.879 375.512 132.391 374.648 133.415 374.136C134.439 373.56 135.495 373.528 136.583 374.04C140.807 376.152 145.255 377.208 149.927 377.208C158.055 377.208 162.119 374.136 162.119 367.992C162.119 365.496 161.351 363.448 159.815 361.848C158.279 360.184 155.687 358.712 152.039 357.432ZM189.719 328.056C188.247 328.056 186.967 327.544 185.879 326.52C184.791 325.432 184.247 324.152 184.247 322.68V322.392C184.247 320.92 184.791 319.64 185.879 318.552C186.967 317.464 188.247 316.92 189.719 316.92H230.615C232.087 316.92 233.367 317.464 234.455 318.552C235.543 319.64 236.087 320.92 236.087 322.392V322.68C236.087 324.152 235.543 325.432 234.455 326.52C233.367 327.544 232.087 328.056 230.615 328.056H217.751C217.239 328.056 216.983 328.344 216.983 328.92V381.528C216.983 383 216.439 384.28 215.351 385.368C214.263 386.456 212.983 387 211.511 387H208.823C207.351 387 206.071 386.456 204.983 385.368C203.895 384.28 203.351 383 203.351 381.528V328.92C203.351 328.344 203.095 328.056 202.583 328.056H189.719ZM254.369 387C252.897 387 251.617 386.456 250.529 385.368C249.441 384.28 248.897 383 248.897 381.528V322.392C248.897 320.92 249.441 319.64 250.529 318.552C251.617 317.464 252.897 316.92 254.369 316.92H287.009C288.481 316.92 289.761 317.464 290.849 318.552C291.937 319.64 292.481 320.92 292.481 322.392C292.481 323.864 291.937 325.144 290.849 326.232C289.761 327.256 288.481 327.768 287.009 327.768H263.201C262.625 327.768 262.337 328.056 262.337 328.632V344.088C262.337 344.664 262.625 344.952 263.201 344.952H285.377C286.849 344.952 288.065 345.464 289.025 346.488C290.049 347.512 290.561 348.728 290.561 350.136C290.561 351.544 290.049 352.76 289.025 353.784C288.065 354.744 286.849 355.224 285.377 355.224H263.201C262.625 355.224 262.337 355.512 262.337 356.088V375.288C262.337 375.864 262.625 376.152 263.201 376.152H287.009C288.481 376.152 289.761 376.696 290.849 377.784C291.937 378.808 292.481 380.056 292.481 381.528C292.481 383 291.937 384.28 290.849 385.368C289.761 386.456 288.481 387 287.009 387H254.369ZM319.895 327.864V348.696C319.895 349.208 320.183 349.464 320.759 349.464H325.559C336.951 349.464 342.647 345.4 342.647 337.272C342.647 330.04 337.367 326.424 326.807 326.424C324.887 326.424 322.871 326.584 320.759 326.904C320.183 327.032 319.895 327.352 319.895 327.864ZM312.119 387C310.647 387 309.367 386.456 308.279 385.368C307.191 384.28 306.647 383 306.647 381.528V322.872C306.647 321.336 307.159 319.96 308.183 318.744C309.207 317.528 310.487 316.856 312.023 316.728C317.463 316.216 322.711 315.96 327.767 315.96C337.175 315.96 344.215 317.72 348.887 321.24C353.559 324.696 355.895 329.592 355.895 335.928C355.895 340.472 354.647 344.472 352.151 347.928C349.719 351.384 346.423 353.816 342.263 355.224C342.199 355.224 342.167 355.256 342.167 355.32C342.167 355.448 342.199 355.512 342.263 355.512C345.335 357.432 347.959 361.208 350.135 366.84L355.895 381.912C356.343 383.128 356.183 384.28 355.415 385.368C354.711 386.456 353.719 387 352.439 387H349.463C347.799 387 346.295 386.552 344.951 385.656C343.607 384.696 342.647 383.448 342.071 381.912L336.695 367.128C335.543 364.056 334.231 362.04 332.759 361.08C331.287 360.12 328.759 359.64 325.175 359.64H320.759C320.183 359.64 319.895 359.928 319.895 360.504V381.528C319.895 383 319.351 384.28 318.263 385.368C317.239 386.456 315.991 387 314.519 387H312.119Z" fill="white"/>
</g>
</g>
<defs>
<filter id="filter0_d_1_49" x="107.45" y="17.2314" width="264.899" height="420.463" filterUnits="userSpaceOnUse" color-interpolation-filters="sRGB">
<feFlood flood-opacity="0" result="BackgroundImageFix"/>
<feColorMatrix in="SourceAlpha" type="matrix" values="0 0 0 0 0 0 0 0 0 0 0 0 0 0 0 0 0 0 127 0" result="hardAlpha"/>
<feOffset dx="6" dy="6"/>
<feGaussianBlur stdDeviation="3"/>
<feComposite in2="hardAlpha" operator="out"/>
<feColorMatrix type="matrix" values="0 0 0 0 0 0 0 0 0 0 0 0 0 0 0 0 0 0 0.25 0"/>
<feBlend mode="normal" in2="BackgroundImageFix" result="effect1_dropShadow_1_49"/>
<feBlend mode="normal" in="SourceGraphic" in2="effect1_dropShadow_1_49" result="shape"/>
</filter>
<filter id="filter1_d_1_49" x="-1" y="-3" width="264.899" height="420.463" filterUnits="userSpaceOnUse" color-interpolation-filters="sRGB">
<feFlood flood-opacity="0" result="BackgroundImageFix"/>
<feColorMatrix in="SourceAlpha" type="matrix" values="0 0 0 0 0 0 0 0 0 0 0 0 0 0 0 0 0 0 127 0" result="hardAlpha"/>
<feOffset dx="6" dy="6"/>
<feGaussianBlur stdDeviation="3"/>
<feComposite in2="hardAlpha" operator="out"/>
<feColorMatrix type="matrix" values="0 0 0 0 0 0 0 0 0 0 0 0 0 0 0 0 0 0 0.25 0"/>
<feBlend mode="normal" in2="BackgroundImageFix" result="effect1_dropShadow_1_49"/>
<feBlend mode="normal" in="SourceGraphic" in2="effect1_dropShadow_1_49" result="shape"/>
</filter>
<filter id="filter2_d_1_49" x="7.18399" y="315.96" width="353.383" height="80" filterUnits="userSpaceOnUse" color-interpolation-filters="sRGB">
<feFlood flood-opacity="0" result="BackgroundImageFix"/>
<feColorMatrix in="SourceAlpha" type="matrix" values="0 0 0 0 0 0 0 0 0 0 0 0 0 0 0 0 0 0 127 0" result="hardAlpha"/>
<feOffset dy="4"/>
<feGaussianBlur stdDeviation="2"/>
<feComposite in2="hardAlpha" operator="out"/>
<feColorMatrix type="matrix" values="0 0 0 0 0 0 0 0 0 0 0 0 0 0 0 0 0 0 0.25 0"/>
<feBlend mode="normal" in2="BackgroundImageFix" result="effect1_dropShadow_1_49"/>
<feBlend mode="normal" in="SourceGraphic" in2="effect1_dropShadow_1_49" result="shape"/>
</filter>
<linearGradient id="paint0_linear_1_49" x1="283.075" y1="37.937" x2="184.724" y2="404.989" gradientUnits="userSpaceOnUse">
<stop offset="0.1545" stop-color="#1E1E1E"/>
<stop offset="0.352425" stop-color="#303031"/>
<stop offset="0.680563" stop-color="#1E1E1E"/>
</linearGradient>
<linearGradient id="paint1_linear_1_49" x1="76.2741" y1="17.7055" x2="174.625" y2="384.757" gradientUnits="userSpaceOnUse">
<stop offset="0.1545" stop-color="#1E1E1E"/>
<stop offset="0.352425" stop-color="#303031"/>
<stop offset="0.680563" stop-color="#1E1E1E"/>
</linearGradient>
<clipPath id="clip0_1_49">
<rect width="360" height="422" fill="white"/>
</clipPath>
</defs>
</svg>
